<?xml version="1.0" encoding="UTF-8"?><svg id="Layer_2" xmlns="http://www.w3.org/2000/svg" viewBox="0 0 204.73 451.1801"><g id="Components"><g id="_7c1c548b-33b8-456d-9fa5-6251172a8574_1"><path d="M202.5601,55.89L104.46.55c-.6399-.3601-1.37-.55-2.1-.55-.84,0-1.63.25-2.2899.67L2.1699,55.89C.83,56.64.01,58.0601.01,59.5901v110.6599c0,1.52.8,2.91,2.1,3.6801.67.38,1.41.58,2.15.58.72,0,1.4399-.1899,2.09-.55l49.0499-27.6599c1.3401-.76,2.1702-2.17,2.1702-3.71v-52.8501l44.7999-25.27,44.7999,25.27v52.8501c0,1.5399.8201,2.95,2.16,3.71l49.0599,27.6599c.6501.3601,1.3701.55,2.0901.55.74,0,1.48-.2,2.14-.58,1.3099-.77,2.11-2.16,2.11-3.6801V59.5901c0-1.53-.8301-2.9501-2.1699-3.7001ZM200.48,170.25l-49.0601-27.6599v-55.3401l-49.0499-27.6599h-.01l-49.0499,27.6599v55.3401l-49.05,27.6599V59.5901l49.05-27.67L102.36,4.26v-.01h.01l49.0499,27.67,49.0601,27.67v110.6599Z" style="fill:#212121;"/><path d="M102.36,280.9301v.0099h.01v-.0099h-.01Z" style="fill:#212121;"/><path d="M102.37,285.8101l46.7699,26.3799c.1001.0601.2001.1301.3101.1801l48.9399,27.6c.6501.3701,1.3701.55,2.0901.55.74,0,1.48-.1899,2.14-.5801,1.3099-.7599,2.11-2.1599,2.11-3.6699v-55.3301c0-1.5399-.8301-2.95-2.1699-3.71l-49.04-27.6599c-.0601-.03-.1201-.0601-.1801-.0901l-48.83-27.5499-.05-.03c-.1499-.08-.3-.16-.46-.22-.1799-.0699-.3601-.13-.54-.1801s-.36-.09-.55-.11c-.1899-.0299-.3699-.0399-.5499-.0399s-.36.01-.5399.0399c-.1702.02-.3401.0499-.51.1-.01-.01-.02,0-.03,0-.16.04-.3101.0901-.46.15-.1901.0699-.3701.16-.55.26l-48.8801,27.5699c-.0599.03-.1199.0601-.1699.0901l-49.05,27.6599c-1.34.76-2.1599,2.17-2.1599,3.7101v110.67c0,1.5299.8199,2.95,2.1599,3.7l98.1001,55.33c.6399.36,1.36.55,2.09.55h.01c.73,0,1.4501-.1901,2.09-.55l98.1001-55.33c1.3398-.75,2.1699-2.17,2.1699-3.7,0-1.54-.8301-2.9501-2.1699-3.7101l-49.04-27.66c-.64-.36-1.3701-.5499-2.1001-.5499s-1.45.1899-2.09.5499l-46.96,26.49-44.7999-25.27v-50.3699l44.7999-25.27ZM102.36,391.6001v.01h.01l49.0499-27.6702h.01l49.05,27.6602-49.0601,27.6699-49.0499,27.66h-.01l-49.0499-27.66-49.05-27.6699v-110.67l49.04-27.66h.01l15.48-8.74,29.3199-16.52,4.25-2.3999h.01l4.24,2.3899,44.8099,25.28h.01l49.05,27.6599v55.3301l-49.05-27.6599h-.01v-.01l-45.3499-25.5801-3.7001-2.0801h-.01l-3.7001,2.0901-45.3499,25.5701v55.3398l49.0499,27.6602Z" style="fill:#212121;"/><rect x="102.36" y="280.9301" width=".01" height=".0099" style="fill:#212121;"/><path d="M102.36,280.9301v.0099h.01v-.0099h-.01Z" style="fill:#212121;"/><rect x="102.36" y="280.9301" width=".01" height=".0099" style="fill:#212121;"/><path d="M202.5701,194.1801l-49.0601-27.66-49.05-27.6699c-.6399-.3601-1.37-.55-2.1-.55-.85,0-1.63.24-2.2899.6699L2.1599,194.1899c-1.33.75-2.1599,2.1702-2.1599,3.7001v55.3199c0,1.51.8,2.91,2.11,3.67.66.39,1.4.58,2.14.58.72,0,1.4399-.1799,2.09-.5499l49.0599-27.66,46.9701-26.49,46.97,26.49,49.0499,27.66c.6501.37,1.3701.5499,2.0901.5499.74,0,1.48-.1899,2.15-.58,1.2999-.76,2.1-2.16,2.1-3.67v-55.33c0-1.5299-.8201-2.95-2.1599-3.7ZM200.48,253.21l-49.0601-27.6599-49.0399-27.67h-.02l-49.0499,27.67-49.0601,27.6599v-55.3199l49.0601-27.67,49.0499-27.6599v-.01h.01l49.0499,27.6699,49.0601,27.66v55.33Z" style="fill:#212121;"/></g></g></svg>