<?xml version="1.0" encoding="UTF-8"?>
<svg id="Layer_2" data-name="Layer 2" xmlns="http://www.w3.org/2000/svg" viewBox="0 0 196.23 442.67">
  <defs>
    <style>
      .cls-1 {
        fill: #fefefe;
      }
    </style>
  </defs>
  <g id="Layer_1-2" data-name="Layer 1">
    <g id="logo-white">
      <polygon class="cls-1" points="196.22 55.34 196.22 166 147.17 138.34 147.17 83 98.12 55.34 98.11 55.34 49.06 83 49.06 138.34 0 166 0 55.34 49.06 27.67 98.11 0 98.11 0 98.12 0 147.17 27.67 196.22 55.34"/>
      <g>
        <polygon class="cls-1" points="98.12 276.68 98.11 276.68 49.06 304.34 49.06 359.68 98.11 387.34 98.11 387.35 98.12 387.35 147.17 359.68 147.18 359.68 196.22 387.34 147.17 415.01 98.12 442.67 98.11 442.67 49.06 415.01 0 387.34 0 276.67 49.05 249.01 49.06 249.01 64.54 240.28 98.11 221.35 98.11 276.67 98.12 276.67 98.12 276.68"/>
        <polygon class="cls-1" points="196.22 276.68 196.22 332.01 147.18 304.35 147.17 304.35 147.17 304.34 98.12 276.68 98.11 276.68 98.11 221.35 98.12 221.35 147.17 249.02 147.18 249.02 196.22 276.68"/>
      </g>
      <polygon class="cls-1" points="196.23 193.63 196.23 248.96 147.17 221.3 98.12 193.63 98.1 193.63 49.06 221.3 0 248.96 0 193.64 49.06 165.97 98.1 138.31 98.1 138.3 98.11 138.3 147.17 165.97 196.23 193.63"/>
    </g>
  </g>
</svg>