<?xml version="1.0" encoding="UTF-8"?><svg id="Layer_2" xmlns="http://www.w3.org/2000/svg" viewBox="0 0 196.2284 442.6742"><g id="Components"><g id="_09f8ac3a-a1ad-42cb-8f6a-0b3b6b8e1c88_1"><polygon points="196.2233 55.3403 196.2233 166.0011 147.1662 138.3408 147.1662 83.0006 98.1192 55.3403 98.1091 55.3403 49.0621 83.0006 49.0621 138.3408 .005 166.0011 .005 55.3403 49.0621 27.6701 98.1091 .0098 98.1091 0 98.1192 0 147.1662 27.6701 196.2233 55.3403" style="fill:#212121;"/><polygon points="98.1189 276.6829 98.1088 276.6829 49.0618 304.3432 49.0618 359.6835 98.1088 387.3438 98.1088 387.3536 98.1189 387.3536 147.1659 359.6835 147.176 359.6835 196.223 387.3438 147.1659 415.0139 98.1189 442.6742 98.1088 442.6742 49.0618 415.0139 .0047 387.3438 .0047 276.6731 49.0522 249.0128 49.0618 249.0128 64.5392 240.2811 98.1088 221.3525 98.1088 276.6731 98.1189 276.6731 98.1189 276.6829" style="fill:#388e3c;"/><polygon points="196.2237 276.683 196.2237 332.0133 147.1767 304.353 147.1666 304.353 147.1666 304.3433 98.1196 276.683 98.1095 276.683 98.1095 221.3525 98.1196 221.3525 147.1666 249.0227 147.1767 249.0227 196.2237 276.683" style="fill:#212121;"/><polygon points="196.2284 193.6273 196.2284 248.9577 147.1713 221.2974 98.1238 193.6273 98.1046 193.6273 49.0571 221.2974 0 248.9577 0 193.6371 49.0571 165.967 98.1046 138.3067 98.1046 138.2969 98.1142 138.2969 147.1713 165.967 196.2284 193.6273" style="fill:#212121;"/></g></g></svg>